<svg width="218" height="135" viewBox="0 0 218 135" fill="none" xmlns="http://www.w3.org/2000/svg">
<g clip-path="url(#clip0_111_80)">
<path d="M101.251 43.6128C101.975 42.8631 102.944 42.4411 103.987 42.4311C105.034 42.4411 105.997 42.8232 106.736 43.5585L108.919 45.7496C110.768 47.5976 113.21 48.6177 115.799 48.6177H115.819C121.803 48.6032 131.232 47.603 142.174 42.9014V24.5322C142.174 16.1781 135.412 9.40332 127.074 9.40332H90.8978C82.565 9.40332 75.802 16.1789 75.802 24.5322V37.3818C87.9226 32.5431 98.0125 31.9105 103.21 31.9985C106.449 32.0522 109.507 33.3618 111.817 35.6754L113.935 37.803L124.911 26.3457H98.9856C97.3267 26.3457 95.9819 25.0024 95.9819 23.3405V21.6441H128.615C129.623 21.6441 130.602 22.0952 131.184 22.9139C132.079 24.1592 131.933 25.8065 130.92 26.8604L116.719 41.6951C116 42.4449 115.031 42.8669 113.994 42.8768C112.956 42.8669 111.978 42.4893 111.244 41.7495L108.499 38.9993C107.05 37.5533 105.146 36.7346 103.13 36.7002C98.0363 36.6067 87.9118 37.2692 75.8013 42.4556V60.7712C75.8013 69.1298 82.5643 75.9008 90.897 75.9008H127.073C135.411 75.9008 142.173 69.1306 142.173 60.7712V47.9859C131.271 52.349 121.896 53.3048 115.828 53.3201H115.799C111.957 53.3201 108.336 51.8152 105.606 49.0796L104.034 47.5057L93.0643 58.963H118.842C120.579 58.963 121.993 60.3753 121.993 62.1153V63.6646H89.3557C88.3527 63.6646 87.3788 63.2135 86.7913 62.3948C85.8958 61.1495 86.0425 59.5022 87.0601 58.4483L101.251 43.6128Z" fill="white"/>
<path d="M54.4019 115.946H56.8825C58.7664 115.946 59.8646 117.068 59.8646 119.001V122.313C59.8646 124.26 58.7664 125.409 56.9094 125.409H54.4019V115.946ZM56.9101 123.826C57.7373 123.826 58.1842 123.299 58.1842 122.299V119.001C58.1842 118.027 57.7373 117.527 56.9101 117.527H56.0699V123.826H56.9101Z" fill="white"/>
<path d="M65.7621 115.946V125.409H64.0947V115.946H65.7621Z" fill="white"/>
<path d="M69.6528 122.732H71.3609C71.3747 123.583 71.8217 123.975 72.5397 123.975C73.2985 123.975 73.6649 123.529 73.6649 122.92C73.6649 121.204 69.8425 121.068 69.8425 118.216C69.8425 116.81 70.8455 115.756 72.5267 115.756C74.2209 115.756 75.2515 116.797 75.2646 118.487H73.5566C73.5427 117.73 73.1633 117.365 72.5267 117.365C71.9031 117.365 71.5375 117.716 71.5375 118.257C71.5375 119.906 75.4005 119.96 75.4005 122.934C75.4005 124.421 74.3568 125.597 72.5267 125.597C70.7779 125.597 69.6667 124.557 69.6528 122.732Z" fill="white"/>
<path d="M84.2118 117.528H82.3002V125.409H80.5922V117.528H78.6807V115.946H84.211V117.528H84.2118Z" fill="white"/>
<path d="M90.3533 122.11H89.5946V125.409H87.9272V115.946H90.53C92.387 115.946 93.4576 117.068 93.4576 119.001C93.4576 120.38 92.9292 121.353 91.9669 121.813L93.8785 125.409H92.0483L90.3533 122.11ZM89.5938 120.528H90.5154C91.3149 120.528 91.7488 120.002 91.7488 119.014C91.7488 118.041 91.3149 117.528 90.5154 117.528H89.5938V120.528Z" fill="white"/>
<path d="M99.3006 115.946V125.409H97.6333V115.946H99.3006Z" fill="white"/>
<path d="M109.413 122.637C109.413 124.326 108.288 125.408 106.647 125.408H103.787V115.946H106.566C108.057 115.946 109.073 116.986 109.073 118.582C109.073 119.393 108.748 120.136 108.205 120.555C108.966 120.934 109.413 121.718 109.413 122.637ZM105.455 117.514V119.839H106.363C107.041 119.839 107.38 119.42 107.38 118.65C107.38 117.893 107.041 117.514 106.309 117.514H105.455ZM107.705 122.637C107.705 121.812 107.217 121.393 106.376 121.393H105.454V123.84H106.39C107.258 123.84 107.705 123.434 107.705 122.637Z" fill="white"/>
<path d="M113.29 122.421V115.946H115.012V122.421C115.012 123.435 115.446 123.949 116.205 123.949C116.964 123.949 117.398 123.435 117.398 122.421V115.946H119.132V122.421C119.132 124.408 118.021 125.557 116.205 125.557C114.402 125.557 113.29 124.408 113.29 122.421Z" fill="white"/>
<path d="M125.125 115.946V125.409H123.458V115.946H125.125Z" fill="white"/>
<path d="M129.613 115.946H132.093C133.977 115.946 135.075 117.068 135.075 119.001V122.313C135.075 124.26 133.977 125.409 132.12 125.409H129.613V115.946ZM132.12 123.826C132.947 123.826 133.394 123.299 133.394 122.299V119.001C133.394 118.027 132.946 117.527 132.12 117.527H131.28V123.826H132.12Z" fill="white"/>
<path d="M139.034 122.367V118.988C139.034 116.987 140.145 115.784 142.03 115.784C143.9 115.784 145.012 116.987 145.012 118.988V122.367C145.012 124.367 143.9 125.57 142.03 125.57C140.146 125.57 139.034 124.367 139.034 122.367ZM143.291 122.367V118.988C143.291 117.961 142.871 117.392 142.03 117.392C141.19 117.392 140.756 117.96 140.756 118.988V122.367C140.756 123.394 141.19 123.962 142.03 123.962C142.87 123.962 143.291 123.394 143.291 122.367Z" fill="white"/>
<path d="M151.668 122.11H150.909V125.409H149.242V115.946H151.845C153.702 115.946 154.772 117.068 154.772 119.001C154.772 120.38 154.244 121.353 153.282 121.813L155.193 125.409H153.363L151.668 122.11ZM150.909 120.528H151.831C152.63 120.528 153.064 120.002 153.064 119.014C153.064 118.041 152.63 117.528 151.831 117.528H150.909V120.528Z" fill="white"/>
<path d="M162.459 123.691H160.236L159.856 125.408H158.122L160.453 115.946H162.243L164.574 125.408H162.839L162.459 123.691ZM162.12 122.11L161.74 120.353C161.605 119.704 161.455 118.664 161.361 118.028H161.32C161.239 118.664 161.09 119.704 160.955 120.353L160.575 122.11H162.12Z" fill="white"/>
<path d="M13.7187 89.2182V95.1154H20.5547V98.9233H13.7187V108.898H9.42871V85.3101H21.2167V89.219H13.7187V89.2182Z" fill="white"/>
<path d="M34.2964 97.3395V108.897H30.9833L30.7391 107.212C30.0417 108.425 28.7515 109.369 26.6587 109.369C23.2757 109.369 21.1138 107.077 21.1138 103.809C21.1138 100.035 23.9385 98.2148 27.9843 98.2148H30.147V97.3387C30.147 95.519 29.5886 94.4744 28.0542 94.4744C26.9037 94.4744 25.9268 95.0472 25.7525 96.4288H21.6375C21.8119 92.8232 24.218 90.6328 28.1241 90.6328C32.3081 90.6336 34.2964 92.9924 34.2964 97.3395ZM30.1462 101.585H28.0534C26.3093 101.585 25.2986 102.36 25.2986 103.809C25.2986 105.023 26.0658 105.899 27.6356 105.899C29.1701 105.899 30.147 104.955 30.147 103.439V101.585H30.1462Z" fill="white"/>
<path d="M50.0604 97.5755V102.327C50.0604 106.607 47.6889 109.302 44.1315 109.302C42.5625 109.302 40.9927 108.392 40.0857 107.313L39.8415 108.931H36.9814V84.467H40.9919V91.8132C41.829 91.1055 42.9449 90.6338 44.1307 90.6338C47.6889 90.6338 50.0604 93.3296 50.0604 97.5755ZM45.8749 97.5755C45.8749 95.4189 45.0377 94.4416 43.5033 94.4416C41.8989 94.4416 40.9927 95.5537 40.9927 97.5755V102.327C40.9927 104.45 41.9688 105.528 43.5033 105.528C45.0032 105.528 45.8749 104.484 45.8749 102.327V97.5755Z" fill="white"/>
<path d="M52.0134 85.9834C52.0134 84.6354 52.9903 83.6582 54.385 83.6582C55.7451 83.6582 56.7911 84.6354 56.7911 85.9834C56.7911 87.2302 55.7451 88.3085 54.385 88.3085C52.9896 88.3093 52.0134 87.2983 52.0134 85.9834ZM52.3268 91.0718H56.4425V108.897H52.3268V91.0718Z" fill="white"/>
<path d="M71.4039 97.3395V108.897H68.0907L67.8465 107.212C67.1492 108.425 65.8589 109.369 63.7661 109.369C60.3831 109.369 58.2212 107.077 58.2212 103.809C58.2212 100.035 61.0459 98.2148 65.0917 98.2148H67.2536V97.3387C67.2536 95.519 66.6953 94.4744 65.1608 94.4744C64.0096 94.4744 63.0335 95.0472 62.8591 96.4288H58.7442C58.9185 92.8232 61.3247 90.6328 65.2307 90.6328C69.4163 90.6336 71.4039 92.9924 71.4039 97.3395ZM67.2536 101.585H65.1608C63.4167 101.585 62.4052 102.36 62.4052 103.809C62.4052 105.023 63.1725 105.899 64.7423 105.899C66.2767 105.899 67.2536 104.955 67.2536 103.439V101.585Z" fill="white"/>
<path d="M86.9935 97.8451V108.898H82.8786V97.9462C82.8786 95.4189 82.1459 94.4417 80.7159 94.4417C79.1814 94.4417 78.2053 95.5874 78.2053 97.744V108.897H74.0896V91.0719H76.8797L77.2284 92.9926C78.17 91.4762 79.6699 90.6338 81.6928 90.6338C85.0059 90.6338 86.9935 92.9926 86.9935 97.8451Z" fill="white"/>
<path d="M89.1216 102.394V97.5756C89.1216 93.1274 91.6329 90.6338 95.7824 90.6338C99.9673 90.6338 102.479 93.1274 102.479 97.5756V102.394C102.479 106.842 99.9673 109.336 95.7824 109.336C91.6322 109.335 89.1216 106.842 89.1216 102.394ZM98.2938 102.394V97.5756C98.2938 95.4189 97.3868 94.509 95.7824 94.509C94.2134 94.509 93.3064 95.4189 93.3064 97.5756V102.394C93.3064 104.517 94.2134 105.461 95.7824 105.461C97.3868 105.46 98.2938 104.517 98.2938 102.394Z" fill="white"/>
<path d="M123.194 104.955V108.898H109.593V106.067L117.789 89.2527H110.152V85.3101H123.021V88.1744L114.86 104.955H123.194Z" fill="white"/>
<path d="M136.727 97.3395V108.897H133.413L133.169 107.212C132.472 108.425 131.182 109.369 129.089 109.369C125.706 109.369 123.544 107.077 123.544 103.809C123.544 100.035 126.369 98.2148 130.414 98.2148H132.576V97.3387C132.576 95.519 132.018 94.4744 130.484 94.4744C129.332 94.4744 128.356 95.0472 128.182 96.4288H124.067C124.241 92.8232 126.647 90.6328 130.553 90.6328C134.739 90.6336 136.727 92.9924 136.727 97.3395ZM132.576 101.585H130.484C128.739 101.585 127.729 102.36 127.729 103.809C127.729 105.023 128.496 105.899 130.065 105.899C131.599 105.899 132.576 104.955 132.576 103.439V101.585Z" fill="white"/>
<path d="M144.539 90.3977V91.0717H147.852V94.7111H144.539V108.897H140.458V94.7111H137.843V91.0717H140.458V90.3977C140.458 86.7246 142.377 83.9951 147.05 83.9951H148.201V87.6008H147.05C145.271 87.6016 144.539 88.4095 144.539 90.3977Z" fill="white"/>
<path d="M154.339 90.3977V91.0717H157.652V94.7111H154.339V108.897H150.259V94.7111H147.643V91.0717H150.259V90.3977C150.259 86.7246 152.177 83.9951 156.851 83.9951H158.002V87.6008H156.851C155.071 87.6016 154.339 88.4095 154.339 90.3977Z" fill="white"/>
<path d="M171.253 97.3395V108.897H167.94L167.696 107.212C166.999 108.425 165.709 109.369 163.616 109.369C160.233 109.369 158.071 107.077 158.071 103.809C158.071 100.035 160.895 98.2148 164.941 98.2148H167.103V97.3387C167.103 95.519 166.545 94.4744 165.01 94.4744C163.859 94.4744 162.883 95.0472 162.709 96.4288H158.594C158.768 92.8232 161.174 90.6328 165.08 90.6328C169.265 90.6336 171.253 92.9924 171.253 97.3395ZM167.103 101.585H165.01C163.266 101.585 162.256 102.36 162.256 103.809C162.256 105.023 163.023 105.899 164.592 105.899C166.126 105.899 167.103 104.955 167.103 103.439V101.585Z" fill="white"/>
<path d="M173.765 84.4678H177.88V108.898H173.765V84.4678Z" fill="white"/>
<path d="M180.007 102.394V97.5756C180.007 93.1274 182.518 90.6338 186.668 90.6338C190.853 90.6338 193.364 93.1274 193.364 97.5756V102.394C193.364 106.842 190.853 109.336 186.668 109.336C182.518 109.335 180.007 106.842 180.007 102.394ZM189.179 102.394V97.5756C189.179 95.4189 188.272 94.509 186.668 94.509C185.099 94.509 184.192 95.4189 184.192 97.5756V102.394C184.192 104.517 185.099 105.461 186.668 105.461C188.272 105.46 189.179 104.517 189.179 102.394Z" fill="white"/>
<path d="M208.57 97.8451V108.898H204.455V97.9462C204.455 95.4189 203.723 94.4417 202.293 94.4417C200.758 94.4417 199.782 95.5874 199.782 97.744V108.897H195.667V91.0719H198.457L198.805 92.9926C199.747 91.4762 201.247 90.6338 203.27 90.6338C206.582 90.6338 208.57 92.9926 208.57 97.8451Z" fill="white"/>
</g>
<defs>
<clipPath id="clip0_111_80">
<rect width="218" height="135" fill="white"/>
</clipPath>
</defs>
</svg>
