<svg width="120" height="50" viewBox="0 0 120 50" fill="none" xmlns="http://www.w3.org/2000/svg">
<g clip-path="url(#clip0_578_1054)">
<path d="M59.9432 0C26.9063 0 0 11.1486 0 25C0 38.8513 26.9063 50 59.9432 50C93.0937 50 119.886 38.8513 119.886 25C120 11.1486 93.0937 0 59.9432 0ZM59.9432 46.509C33.264 46.509 11.6935 36.8243 11.6935 25C11.6935 13.0631 33.264 3.49099 59.9432 3.49099C86.6225 3.49099 108.193 13.1757 108.193 25C108.193 36.8243 86.6225 46.509 59.9432 46.509Z" fill="white"/>
<path d="M33.4915 13.4009C32.9238 13.2883 32.1291 13.2883 31.2209 13.2883C30.9938 13.2883 30.6532 13.2883 30.4262 13.2883C29.2909 13.2883 28.3827 13.9639 27.9285 14.8648L20.6627 32.3198C20.5492 32.4324 20.6627 32.6576 20.8898 32.6576C21.3439 32.7703 22.1386 32.8829 22.8198 32.8829C22.9333 32.8829 23.0468 32.8829 23.2739 32.8829C24.1821 32.8829 25.0903 32.3198 25.3174 31.5315L26.1121 29.5045C26.3391 28.8288 27.1338 28.3784 27.9285 28.3784H28.3827H33.2644H35.0809L36.1026 31.0811C36.4432 31.8693 36.6703 32.3198 37.1244 32.545C37.465 32.7702 38.1461 32.9955 39.0544 32.9955C39.8491 32.9955 40.5303 32.8829 41.0979 32.6576C41.2114 32.545 41.325 32.4324 41.2114 32.3198L33.832 13.5135C33.7185 13.5135 33.605 13.4009 33.4915 13.4009ZM33.9456 25.3378H27.9285C27.815 25.3378 27.815 25.2252 27.815 25.2252C28.1556 24.3243 30.1991 18.6937 30.7668 17.0045C30.7668 16.8919 30.9938 16.8919 31.1074 17.0045C31.675 18.6937 33.7185 24.4369 34.0591 25.2252C34.0591 25.3378 34.0591 25.3378 33.9456 25.3378Z" fill="white"/>
<path d="M56.1969 28.3784V17.7928C56.1969 17.6802 56.0834 17.455 55.9698 17.455C55.4022 17.3423 54.721 17.3423 54.0398 17.3423C53.9263 17.3423 53.8128 17.3423 53.8128 17.3423C52.791 17.3423 51.8828 18.2432 51.8828 19.2568V27.027C51.8828 27.8153 51.5422 28.491 50.861 28.8288C50.0663 29.2793 49.1581 29.6171 48.1364 29.6171C47.4552 29.6171 46.8875 29.3919 46.6605 29.0541C46.4334 28.6036 46.2064 28.0405 46.2064 27.027V19.8198C46.2064 19.0315 45.9793 18.3559 45.6387 18.018C45.2981 17.6802 44.617 17.455 43.5952 17.455C42.687 17.455 42.0058 17.6802 41.3246 18.1306C41.2111 18.2432 41.0976 18.3559 41.2111 18.5811C41.5517 19.2568 41.7787 20.045 41.7787 21.1712V27.9279C41.7787 29.5045 42.2328 30.7432 43.0276 31.6441C43.8223 32.545 45.0711 33.1081 46.6605 33.1081C48.5905 33.1081 50.5205 32.3198 52.3369 30.8559C52.791 31.8694 53.5857 32.545 54.8345 32.8829C55.5157 33.1081 56.1969 32.8829 56.651 32.4324C56.8781 32.2072 57.1051 31.8694 57.2187 31.5315C57.3322 31.3063 57.2187 31.1937 57.1051 31.0811C56.424 30.2928 56.1969 29.5045 56.1969 28.3784Z" fill="white"/>
<path d="M69.2529 17.9054C69.2529 17.6802 69.1394 17.455 68.9123 17.455C68.2311 17.3423 67.6635 17.3423 67.2094 17.3423C65.1659 17.3423 63.5765 18.2432 62.6682 20.045C62.1006 18.8063 61.1923 17.9054 59.9435 17.5676C59.3759 17.3423 58.6947 17.5676 58.3541 18.1306C58.1271 18.3559 57.9 18.6937 57.7865 18.9189C57.673 19.1441 57.673 19.482 57.9 19.5946C58.5812 20.2703 58.9218 21.1712 58.9218 22.5225V32.4324C58.9218 32.6577 59.0353 32.7703 59.2624 32.7703C59.83 32.8829 60.5112 32.8829 61.1924 32.8829H61.3059C62.4412 32.8829 63.3494 31.982 63.3494 30.9685V23.6487C63.3494 23.0856 63.5765 22.6351 63.917 22.1847C64.7117 21.3964 65.62 20.946 66.8688 20.946C68.0041 21.0586 69.0258 20.2703 69.3664 19.2568C69.1394 18.8063 69.1394 18.3559 69.2529 17.9054Z" fill="white"/>
<path d="M76.0639 17.1171C73.6798 17.1171 71.8634 17.9054 70.6146 19.3694C69.3657 20.8333 68.6846 22.7478 68.6846 25.1126C68.6846 27.4775 69.2522 29.3919 70.3875 30.8559C71.5228 32.3198 73.4528 33.1081 76.0639 33.1081C77.9939 33.1081 79.6969 32.7703 81.1727 32.2072C83.1027 31.5315 82.081 29.7297 81.7404 29.1667C81.6269 29.0541 81.5133 29.0541 81.5133 29.0541C79.9239 29.7297 78.4481 30.0676 77.0857 30.0676C75.7234 30.0676 74.7016 29.7297 74.134 29.0541C73.5663 28.3784 73.3393 27.5901 73.2257 26.464C73.2257 26.3514 73.3393 26.2387 73.4528 26.2387H82.6486C82.9892 26.2387 83.2163 26.0135 83.3298 25.6757C83.4433 25 83.5568 24.2117 83.5568 23.536C83.5568 21.6216 82.8757 20.1577 81.6269 18.9189C80.2645 17.7928 78.4481 17.1171 76.0639 17.1171ZM79.3563 23.4234C79.3563 23.536 79.2428 23.6487 79.1292 23.6487H73.3393C73.2257 23.6487 73.2257 23.536 73.2257 23.536C73.4528 21.1712 74.4745 19.9324 76.291 19.9324C79.2428 19.8198 79.3563 22.7478 79.3563 23.4234Z" fill="white"/>
<path d="M98.4294 28.6036V22.4099C98.4294 20.7207 97.8617 19.3694 96.7265 18.5811C95.5912 17.6802 94.2288 17.3423 92.4124 17.3423C89.9147 17.3423 87.4171 17.7928 85.033 18.5811C84.9195 18.5811 84.8059 18.8063 84.8059 18.9189C84.8059 19.3694 84.9195 19.7072 85.1465 20.1577C85.4871 20.9459 86.2818 21.3964 87.0765 21.1712C88.893 20.6081 90.2553 20.3829 91.3906 20.3829C93.2071 20.3829 94.1153 21.1712 94.1153 22.7478V23.4234C94.1153 23.4234 94.1153 23.536 94.0018 23.536C93.0935 23.536 92.0718 23.536 91.05 23.536C89.0065 23.536 87.4171 23.9865 86.1683 24.8874C84.9195 25.7883 84.2383 27.027 84.2383 28.7162C84.2383 29.955 84.6924 30.9685 85.6006 31.8694C86.5089 32.7703 87.8712 33.2207 89.6877 33.2207C91.5041 33.2207 93.2071 32.545 94.7965 31.3063C95.3641 32.0946 96.1588 32.6577 97.1806 32.8829C97.7482 32.9955 98.2023 32.8829 98.5429 32.4324C98.77 32.0946 99.1106 31.7568 99.3376 31.4189C99.4512 31.1937 99.4512 30.9685 99.3376 30.8559C98.6565 30.2928 98.4294 29.5045 98.4294 28.6036ZM94.1153 28.0405C94.1153 28.491 93.8882 28.9414 93.5477 29.1667C92.6394 29.8423 91.6177 30.1802 90.5959 30.1802C89.9147 30.1802 89.4606 29.955 89.12 29.6171C88.7794 29.2793 88.5524 28.7162 88.5524 28.1532C88.5524 27.4775 88.7794 26.9144 89.3471 26.5766C89.8012 26.1261 90.5959 25.9009 91.5041 25.9009C92.4124 25.9009 93.2071 25.9009 94.0018 26.0135C94.1153 26.0135 94.1153 26.1261 94.1153 26.2387V28.0405Z" fill="white"/>
</g>
<defs>
<clipPath id="clip0_578_1054">
<rect width="120" height="50" fill="white"/>
</clipPath>
</defs>
</svg>
