<svg width="17" height="16" viewBox="0 0 17 16" fill="none" xmlns="http://www.w3.org/2000/svg">
<g clip-path="url(#clip0_427_358)">
<path fill-rule="evenodd" clip-rule="evenodd" d="M9.72299 7.82051C7.78814 7.82051 6.20508 6.34269 6.20508 4.51606C6.20508 2.69861 7.78814 1.21161 9.72299 1.21161C11.6676 1.21161 13.2409 2.69861 13.2409 4.51606C13.2409 6.34269 11.6676 7.82051 9.72299 7.82051ZM10.5048 3.67159C10.5048 3.73584 10.5634 3.78174 10.6318 3.78174C10.7002 3.78174 10.7588 3.73584 10.7588 3.67159C10.7588 3.17592 10.3582 2.76287 9.85003 2.70779V2.29473C9.85003 2.23048 9.7914 2.18459 9.72299 2.18459C9.65459 2.18459 9.60573 2.23048 9.60573 2.29473V2.70779C9.09759 2.76287 8.69694 3.17592 8.69694 3.67159C8.69694 4.15808 9.09759 4.57113 9.60573 4.62621V6.09485C9.2344 6.03978 8.94124 5.73687 8.94124 5.36971C8.94124 5.30546 8.89238 5.25038 8.82397 5.25038C8.75557 5.25038 8.69694 5.30546 8.69694 5.36971C8.69694 5.86538 9.09759 6.26925 9.60573 6.33351V6.73739C9.60573 6.80164 9.65459 6.85671 9.72299 6.85671C9.7914 6.85671 9.85003 6.80164 9.85003 6.73739V6.33351C10.3582 6.26925 10.7588 5.86538 10.7588 5.36971C10.7588 4.87404 10.3582 4.47016 9.85003 4.40591V2.94645C10.2214 3.00152 10.5048 3.30443 10.5048 3.67159ZM9.85003 4.64457C10.2214 4.69964 10.5048 5.00255 10.5048 5.36971C10.5048 5.73687 10.2214 6.03978 9.85003 6.09485V4.64457ZM9.60573 4.39673C9.2344 4.33248 8.94124 4.02957 8.94124 3.67159C8.94124 3.30443 9.2344 3.00152 9.60573 2.94645V4.39673Z" fill="#00497F"/>
<path fill-rule="evenodd" clip-rule="evenodd" d="M2.46289 9.49107C2.5997 9.39928 2.73651 9.31667 2.86354 9.22488C4.40752 8.19683 5.87332 7.22385 8.05247 8.40794C8.17951 8.40794 8.33586 8.39876 8.50198 8.39876C9.56713 8.36205 11.1697 8.29779 11.9026 9.00458C12.0688 9.16062 12.1763 9.3442 12.2349 9.55532C11.4824 10.152 9.55736 10.3723 8.62902 10.464C8.56061 10.4732 8.50198 10.5283 8.51175 10.6017C8.52153 10.666 8.58016 10.7119 8.64856 10.7027C9.66485 10.6109 11.8831 10.3355 12.5867 9.50943C12.6258 9.46353 12.6551 9.42682 12.6844 9.38092C13.6811 8.71085 15.0004 7.86638 15.9287 8.11421C16.2609 8.206 16.5052 8.43548 16.6518 8.78428C16.6909 8.87607 16.6616 8.97704 16.5736 9.03212C15.8212 9.52779 15.1567 9.98674 14.5704 10.3906C11.6974 12.41 10.2414 13.4197 5.44335 12.2356L4.49547 12.7496L2.46289 9.49107Z" fill="#00497F"/>
<path fill-rule="evenodd" clip-rule="evenodd" d="M11.8535 8.68334C12.4789 8.29782 13.3486 7.78379 14.0522 7.94902C14.1988 7.97655 14.3258 8.04081 14.4333 8.12342C13.7297 8.40797 13.0359 8.8761 12.5473 9.20654L12.5082 9.23408L12.4789 9.2708C12.4594 9.30751 12.4398 9.33505 12.4105 9.37177C12.3421 9.17901 12.2249 9.00461 12.0685 8.84856C12.0001 8.79349 11.9317 8.72923 11.8535 8.68334Z" fill="#00497F"/>
<path fill-rule="evenodd" clip-rule="evenodd" d="M2.72614 14.4478C2.64796 14.4478 2.56979 14.4111 2.5307 14.3468L0.0388398 10.3447C0.00952387 10.2989 -0.000248118 10.2346 0.00952387 10.1887C0.0290678 10.1336 0.0681558 10.0877 0.117016 10.0602L1.73917 9.16065C1.84666 9.10558 1.98347 9.14229 2.0421 9.24326L4.53396 13.2453C4.57304 13.2912 4.57304 13.3463 4.56327 13.4014C4.54373 13.4564 4.51441 13.5023 4.45578 13.5299L2.83363 14.4202C2.79454 14.4386 2.76522 14.4478 2.72614 14.4478Z" fill="#00497F"/>
</g>
<defs>
<clipPath id="clip0_427_358">
<rect width="16.6808" height="15.6686" fill="white"/>
</clipPath>
</defs>
</svg>
